<?xml version="1.0" encoding="utf-8" ?><svg xmlns="http://www.w3.org/2000/svg" xmlns:xlink="http://www.w3.org/1999/xlink" width="256" height="256" viewBox="0 0 256 256"><path fill="#2E577D" d="M181.287 0L186.561 0C187.077 11.943 180.98 19.5387 173.446 28.4682C170.31 32.1855 166.542 33.6214 165.396 39.1863L165.685 39.6017C168.534 39.9292 175.712 32.7783 178.365 35.6425C178.671 37.1071 178.712 39.3992 177.79 40.6407C174.581 44.9613 169.357 46.9646 164.649 48.9035C172.321 52.1165 173.807 56.314 179.018 60.1069C179.822 52.974 188.344 46.9247 195.203 47.758C202.837 48.6855 209.659 53.4469 214.011 59.5076C220.803 67.7859 222.954 77.1554 228.276 85.9692C231.96 92.0709 240.149 97.1487 245.447 101.746C251.348 106.823 256.075 115.477 254.93 123.48C254.243 128.287 249.538 136.949 244.609 138.263L244.06 138.151C243.969 137.961 243.804 137.649 243.753 137.46C244.917 134.661 245.17 134.637 245.848 131.44C244.716 133.208 243.855 135.365 243.025 137.309C239.481 147.577 228.765 153.59 218.134 150.419C217.202 150.141 213.049 147.827 212.515 146.993C212.919 145.73 215.366 145.271 216.58 144.676C225.88 140.117 224.559 127.572 220.215 119.802C215.422 111.228 204.198 107.361 197.133 100.326C198.71 104.001 199.655 111.62 199.413 115.481L199.667 115.772C204.993 115.344 206.594 114.816 212.203 115.035C214.293 124.858 204.384 131.304 201.027 139.45C200.172 141.525 201.12 149.652 201.568 152.136C204.367 165.371 212.298 180.728 222.034 190.14C231.015 198.82 241.492 204.002 245.578 217.069C248.208 225.483 244.847 232.434 248.842 240.787C250.327 243.891 251.302 252.491 250.85 256L245.97 256L240.404 256L236.297 256L222.782 256L167.703 256L81.6808 256L79.2079 256L77.657 256L49.3416 256L36.7782 256L33.5283 256L31.8776 256L28.636 256L24.4048 256L20.2598 256C17.8544 231.854 35.2474 222.232 45.7437 203.7C50.3314 195.599 52.6883 180.656 50.4594 171.456C49.9451 169.333 46.655 162.127 44.9676 160.678C41.7734 157.933 37.8196 155.532 35.0189 152.182C33.5444 150.506 33.653 149.278 32.8904 148.273L32.4918 148.547C29.6929 154.73 32.0417 164.731 38.9757 167.662C39.9731 168.083 43.5332 168.592 44.1548 169.071C44.8488 173.506 39.7344 175.836 36.1242 176.856C26.24 179.647 15.4752 174.048 12.6558 164.023C12.3613 165.534 12.0238 166.772 11.615 168.251C7.54195 165.035 4.49317 161.368 3.21607 156.223C1.78391 150.199 2.05483 143.895 3.99856 138.016C7.65472 126.798 17.2524 120.504 21.6704 110.303C25.8455 99.5986 24.7004 88.484 29.5921 77.8593C33.4142 69.5579 36.1611 66.1751 45.3882 63.6572C49.3813 62.5676 53.4749 63.6274 56.9899 65.7653C59.0066 63.4972 61.0059 61.2137 62.9876 58.915C56.1746 52.9304 45.9891 55.8334 40.0862 47.8399C39.4459 46.9729 39.3005 45.3229 39.5592 44.2584C42.465 41.1926 49.2535 46.773 53.3693 45.8958L53.5177 45.5601C53.1983 44.8141 51.1862 42.9044 50.561 42.2299C42.6542 33.7008 29.9256 28.7738 26.5358 16.5967C26.1962 15.377 24.4959 10.7228 25.8418 9.95372C31.7214 6.59418 34.6659 17.4934 38.2935 20.2935C39.4382 21.5537 41.5777 23.992 42.9892 24.9129C43.7106 25.6817 45.1044 26.8672 46.1673 26.673C47.2047 25.1789 45.0567 19.2572 46.0386 16.5446C47.1985 13.3403 50.4605 13.78 51.7068 16.492C53.1355 19.6008 54.2214 23.7101 55.3668 27.0821C58.8095 37.2172 64.6144 44.0961 72.682 50.9164C73.9339 50.1729 75.1374 49.042 76.4033 48.2342C97.7519 34.6106 127.926 33.1442 151.175 41.8233C155.063 37.4731 157.238 30.4762 158.832 24.9142C159.372 23.0277 161.231 8.52375 161.952 8.11565C169.456 3.86932 167.992 16.373 168.362 19.8995C172.828 16.0667 174.166 13.8609 176.907 8.59251C177.36 7.72339 177.409 7.13605 177.962 6.11988L178.061 5.93858L178.569 5.14056C179.306 2.52468 179.164 1.50554 181.287 0ZM97.229 234.059C97.623 234.229 98.0133 234.323 98.2119 234.675C98.8051 233.824 98.8915 233.658 99.8187 233.2L99.806 232.51C100.455 232.06 100.97 232.191 101.876 232.139C101.163 232.069 100.052 232.064 99.6275 231.578C99.8271 229.252 102.248 220.388 103.056 218.086C102.565 216.94 102.641 216.875 101.548 216.165C99.6845 222.289 98.4522 227.757 97.229 234.059Z"/><defs><linearGradient id="gradient_0" gradientUnits="userSpaceOnUse" x1="101.66467" y1="225.98106" x2="98.296104" y2="224.47495"><stop offset="0" stop-color="#12385F" stop-opacity="0.98431373"/><stop offset="1" stop-color="#001E3D"/></linearGradient></defs><path fill="url(#gradient_0)" d="M101.548 216.165C102.641 216.875 102.565 216.94 103.056 218.086C102.248 220.388 99.8271 229.252 99.6275 231.578C100.052 232.064 101.163 232.069 101.876 232.139C100.97 232.191 100.455 232.06 99.806 232.51L99.8187 233.2C98.8915 233.658 98.8051 233.824 98.2119 234.675C98.0133 234.323 97.623 234.229 97.229 234.059C98.4522 227.757 99.6845 222.289 101.548 216.165Z"/><path fill="#FEFEFE" d="M181.393 153.284L181.603 153.139C183.219 152.033 185.04 151.216 186.733 150.234C189.868 148.415 193.17 145.926 195.661 143.289C197.936 158.142 200.555 168.815 209.327 181.527C212.42 186.047 215.974 190.233 219.932 194.019C228.845 202.449 241.248 210.137 242.569 223.578C242.903 226.972 242.462 230.295 241.1 233.434C245.49 243.543 246.243 244.787 245.97 256L240.404 256L236.297 256L222.782 256C223.481 248.309 220.399 246.118 217.798 239.261C216.207 235.067 217.524 228.899 214.332 225.097C211.408 221.512 205.358 220.263 201.059 219.182C198.98 212.67 196.774 207.029 191.462 202.343C190.185 201.217 187.375 199.59 186.546 198.164C181.839 190.076 177.831 176.161 177.188 166.954C177.088 165.525 180.796 154.616 181.393 153.284Z"/><path fill="#2E577D" d="M236.367 246.54C238.64 249.972 239.328 251.998 240.404 256L236.297 256C236.234 253.253 235.999 250.513 235.595 247.796L236.367 246.54Z"/><path fill="#788294" d="M234.598 244.512C235.177 245.091 235.825 245.9 236.367 246.54L235.595 247.796C235.441 246.95 234.881 245.385 234.598 244.512Z"/><path fill="#2E577D" d="M218.649 200.614C231.599 209.084 240.051 213.009 239.414 230.286C237.589 228.526 236.245 226.722 234.674 224.758C228.841 217.467 222.852 210.251 217.828 202.357C217.892 201.111 217.706 201.56 218.649 200.614Z"/><path fill="#BAC1C4" d="M227.238 209.974C230.714 210.769 235.628 216.795 235.55 220.425C233.524 219.224 227.876 212.258 227.238 209.974Z"/><path fill="#54688D" d="M215.015 198.12C216.488 199.004 217.292 199.559 218.649 200.614C217.706 201.56 217.892 201.111 217.828 202.357C216.771 200.899 215.966 199.652 215.015 198.12Z"/><path fill="#FEFEFE" d="M145.236 181.048C145.524 192.694 150.634 195.436 160.921 197.882C158.017 205.373 154.72 222.108 153.903 230.123C147.008 229.082 149.293 230.579 144.611 233.398C138.156 232.468 138.87 234.249 135.246 238.207C136.127 238.584 135.91 238.341 136.197 239.054C136.027 239.564 136.292 239.95 136.557 240.366L136.464 240.52C134.966 239.756 133.557 239.567 131.886 239.443C130.188 240.658 129.713 240.921 129.094 242.953L128.778 243.049C128.18 242.477 127.119 242.864 126.517 243.305C127.605 246.03 123.606 248.769 121.605 249.952C120.764 249.642 119.696 249.278 118.909 248.901C117.399 247.945 113.806 246.014 113.517 244.185L113.892 243.744C114.788 243.461 115.061 243.513 115.989 243.564L115.942 243.429C114.867 242.92 114.841 242.64 114.479 241.724C112.82 237.177 111.133 236.438 106.631 236.054C104.991 233.963 104.345 232.966 101.876 232.139C101.163 232.069 100.052 232.064 99.6275 231.578C99.8271 229.252 102.248 220.388 103.056 218.086C102.565 216.94 102.641 216.875 101.548 216.165C102.671 212.552 103.812 208.484 105.487 205.123C105.91 205.173 107.465 205.222 107.642 205.286C107.768 205.048 108.117 204.446 108.349 204.331C112.253 202.397 116.326 200.99 119.651 198.038C119.818 199.146 120.079 201.521 120.535 202.405C122.483 202.781 122.093 196.928 123.183 196.223C125.545 194.692 128.477 193.899 130.902 192.446C136.024 189.173 140.693 185.054 145.236 181.048Z"/><path fill="#64A7E1" d="M114.479 241.724C117.093 241.187 119.166 242.417 120.64 244.56L120.993 245.339C121.532 245.41 121.713 245.268 122.233 245.041L122.728 245.123C123.897 244.183 125.129 243.77 126.517 243.305C127.605 246.03 123.606 248.769 121.605 249.952C120.764 249.642 119.696 249.278 118.909 248.901C117.399 247.945 113.806 246.014 113.517 244.185L113.892 243.744C114.788 243.461 115.061 243.513 115.989 243.564L115.942 243.429C114.867 242.92 114.841 242.64 114.479 241.724Z"/><path fill="#0E3556" d="M114.479 241.724C117.093 241.187 119.166 242.417 120.64 244.56L120.993 245.339C121.532 245.41 121.713 245.268 122.233 245.041L122.728 245.123C121.039 246.687 121.267 247.464 121.03 249.837C119.743 246.987 119.217 244.531 115.989 243.564L115.942 243.429C114.867 242.92 114.841 242.64 114.479 241.724Z"/><path fill="#0E3556" d="M127.313 242.03C129.048 238.703 131.494 236.473 135.246 238.207C136.127 238.584 135.91 238.341 136.197 239.054C136.027 239.564 136.292 239.95 136.557 240.366L136.464 240.52C134.966 239.756 133.557 239.567 131.886 239.443C130.188 240.658 129.713 240.921 129.094 242.953L128.778 243.049C128.18 242.477 127.119 242.864 126.517 243.305C125.129 243.77 123.897 244.183 122.728 245.123L122.233 245.041C121.713 245.268 121.532 245.41 120.993 245.339L120.64 244.56C122.969 242.442 124.256 242.431 127.313 242.03Z"/><path fill="#0E3556" d="M105.487 205.123C105.91 205.173 107.465 205.222 107.642 205.286C106.264 208.36 103.892 214.785 103.056 218.086C102.565 216.94 102.641 216.875 101.548 216.165C102.671 212.552 103.812 208.484 105.487 205.123Z"/><path fill="#FEFEFE" d="M56.1297 176.662C60.0446 180.892 62.832 183.033 67.9201 185.817C69.7695 186.83 72.2884 188.793 74.0361 190.048C73.9957 196.479 72.6315 203.793 70.8944 209.96C69.9863 213.184 68.6182 216.786 67.8035 219.911C55.3264 224.374 56.8484 229.11 53.6674 239.942C52.8497 242.726 49.2033 246.054 48.6969 249.168C48.1521 251.37 48.8154 253.835 49.3416 256L36.7782 256L33.5283 256L31.8776 256L28.636 256L24.4048 256C22.6659 230.309 42.0106 223.26 51.2649 202.097C54.7917 194.032 55.404 185.291 56.1297 176.662Z"/><path fill="#2E577D" d="M28.636 256C30.8007 246.563 35.252 237.343 42.5498 230.786C38.1081 240.744 36.74 244.873 36.7782 256L33.5283 256L31.8776 256L28.636 256Z"/><path fill="#98A4B1" d="M31.8776 256C32.0624 254.96 32.1681 253.672 32.8161 252.881L33.1754 252.918C33.6695 253.795 33.5399 254.968 33.5283 256L31.8776 256Z"/><path fill="#B6DAEB" d="M120.657 252.731C130.253 247.11 138.956 241.371 149.551 237.749C151.72 237.008 155.522 235.186 157.737 235.961C161.361 237.23 170.601 246.651 172.193 249.601C172.394 249.968 172.583 250.342 172.759 250.722C171.714 251.791 168.148 255.034 167.703 256L81.6808 256C83.0056 248.592 83.4338 245.77 89.5639 240.606C91.1839 239.241 93.2099 237.27 94.9132 235.851C99.921 238.76 104.336 241.261 109.115 244.544C112.164 246.638 117.728 251.312 120.657 252.731Z"/><path fill="#FEFEFE" d="M70.2251 240.729C71.9402 234.441 74.2461 227.901 76.6533 221.831C80.8529 211.24 89.1185 208.297 99.8352 206.727C97.8869 212.495 94.9803 220.615 93.803 226.451L93.9131 228.013C93.378 229.598 92.7684 231.107 92.233 232.675C92.0001 233.357 92.6671 233.981 92.8645 234.466C91.2691 233.361 90.2006 233.787 88.5377 234.416L87.4189 235.413C86.6913 235.682 86.1372 235.974 85.3847 235.881C85.1573 236.736 85.2691 236.981 84.6837 237.36L84.5127 237.321C82.2679 242.33 79.7141 250.666 79.2079 256L77.657 256C75.7213 251.34 73.5851 247.022 71.1082 242.626C70.785 242.052 70.4829 241.336 70.2251 240.729Z"/><path fill="#0E3556" d="M93.803 226.451L93.9131 228.013C93.378 229.598 92.7684 231.107 92.233 232.675C92.0001 233.357 92.6671 233.981 92.8645 234.466C91.2691 233.361 90.2006 233.787 88.5377 234.416C88.2208 233.918 88.1273 233.57 87.9381 233.024C89.2204 232.55 90.626 232.324 91.9725 232.059C92.6897 230.32 93.2685 228.257 93.803 226.451Z"/><path fill="#3A526C" d="M87.6698 233.027L87.9381 233.024C88.1273 233.57 88.2208 233.918 88.5377 234.416L87.4189 235.413C86.6913 235.682 86.1372 235.974 85.3847 235.881C85.1573 236.736 85.2691 236.981 84.6837 237.36L84.5127 237.321C84.8044 235.919 85.3961 234.467 85.8954 233.115C86.6836 233.152 86.8971 233.133 87.6698 233.027Z"/><path fill="#677480" d="M85.8954 233.115C86.0341 232.364 86.6339 230.753 86.928 230.004L87.2081 229.961C87.8086 231.605 86.956 232.004 87.6698 233.027C86.8971 233.133 86.6836 233.152 85.8954 233.115Z"/><path fill="#B6DAEB" d="M101.616 207.738C102.46 206.065 103.529 205.159 105.487 205.123C103.812 208.484 102.671 212.552 101.548 216.165C99.6845 222.289 98.4522 227.757 97.229 234.059C96.2067 234.184 94.5456 234.069 93.4701 234.029C93.9994 232.656 94.3529 231.436 94.7653 230.03L94.4341 229.939C94.2406 228.87 95.7087 225.947 95.3394 224.911C94.3413 225.44 94.1502 226.971 93.9131 228.013L93.803 226.451C94.9803 220.615 97.8869 212.495 99.8352 206.727C100.74 206.845 100.941 207.123 101.616 207.738Z"/><path fill="#0E3556" d="M99.8352 206.727C100.74 206.845 100.941 207.123 101.616 207.738C98.9888 214.111 97.1677 220.621 95.475 227.29C95.2584 228.144 95.0352 229.206 94.7653 230.03L94.4341 229.939C94.2406 228.87 95.7087 225.947 95.3394 224.911C94.3413 225.44 94.1502 226.971 93.9131 228.013L93.803 226.451C94.9803 220.615 97.8869 212.495 99.8352 206.727Z"/><path fill="#031A30" d="M94.4341 229.939L94.7653 230.03C94.3529 231.436 93.9994 232.656 93.4701 234.029C94.5456 234.069 96.2067 234.184 97.229 234.059C97.623 234.229 98.0133 234.323 98.2119 234.675C98.8051 233.824 98.8915 233.658 99.8187 233.2L99.806 232.51C100.455 232.06 100.97 232.191 101.876 232.139C104.345 232.966 104.991 233.963 106.631 236.054C111.133 236.438 112.82 237.177 114.479 241.724C114.841 242.64 114.867 242.92 115.942 243.429L115.989 243.564C115.061 243.513 114.788 243.461 113.892 243.744L113.517 244.185C113.806 246.014 117.399 247.945 118.909 248.901C117.849 248.981 114.286 246.432 113.449 245.587C113.425 245.563 113.331 244.695 112.959 244.283C109.442 244.387 108.198 241.033 105.822 239.965C102.423 238.439 99.6724 236.782 96.59 234.628C95.8875 234.138 94.1701 234.925 93.084 234.196C93.142 233.604 94.1824 230.77 94.4341 229.939Z"/><path fill="#64A7E1" d="M99.8187 233.2C102.145 233.428 103.288 234.716 104.907 236.4C105.5 236.799 105.982 237.179 106.683 237.345C106.149 237.992 106.27 238.775 106.197 239.752L104.161 238.72C102.481 237.988 99.0556 236.305 98.2119 234.675C98.8051 233.824 98.8915 233.658 99.8187 233.2Z"/><path fill="#64A7E1" d="M106.683 237.345C109.534 237.922 112.661 239.658 113.031 242.846L112.829 243.404C110.788 244.178 107.67 241.091 106.197 239.752C106.27 238.775 106.149 237.992 106.683 237.345Z"/><path fill="#64A7E1" d="M131.886 239.443C133.557 239.567 134.966 239.756 136.464 240.52C135.948 241.557 132.272 243.553 131.155 243.937C130.712 244.093 130.252 244.197 129.784 244.245L129.323 244.009L129.094 242.953C129.713 240.921 130.188 240.658 131.886 239.443Z"/><path fill="#64A7E1" d="M88.5377 234.416C90.2006 233.787 91.2691 233.361 92.8645 234.466C91.9333 236.135 89.0752 238.302 87.5646 239.521C87.4908 238.442 87.2881 236.412 87.4189 235.413L88.5377 234.416Z"/><path fill="#FEFEFE" d="M59.3971 173.46C59.5591 174.22 59.7284 174.756 59.5615 175.526L59.2265 175.681C57.8321 174.985 54.779 169.706 53.975 168.154C42.1975 145.464 39.697 118.934 47.1058 94.4254C54.2327 70.8489 72.8335 50.0889 97.0936 43.6796C108.383 40.6972 120.348 39.7515 131.931 41.2692C137.793 42.0373 143.267 43.5334 148.904 45.2657C147.809 47.2242 146.158 49.8889 143.925 50.5743C143.633 51.2577 143.554 51.5004 143.062 52.092C176.527 70.6485 189.438 132.965 173.445 166.436C172.74 167.911 171.309 169.839 170.258 171.124C170.843 168.095 171.667 164.827 172.128 161.831C172.028 160.938 172.033 160.752 171.559 159.97C168.519 169.26 162.719 177.441 154.355 182.629C157.091 178.041 159.064 173.039 160.198 167.819C160.647 165.677 161.426 160.35 162.321 158.603C164.922 153.527 166.715 151.285 167.984 145.522C162.263 153.842 162.681 156.064 152.967 161.31C154.06 159.125 155.369 157.206 156.491 154.795C159.991 147.282 160.418 140.623 161.02 132.577C161.745 131.768 163.08 130.736 162.498 129.705L161.401 129.578C160.829 129.06 160.633 125.731 160.527 124.594C159.759 116.403 158.444 109.094 155.721 101.293C154.839 101.849 155.11 101.594 154.719 102.713C156.158 110.383 156.563 115.095 157.512 122.718C154.816 121.767 142.017 114.545 141.228 112.207C142.425 111.235 147.802 113.176 148.715 112.165C146.201 109.527 140.938 110.723 138.048 109.276C135.667 108.085 133.157 104.552 131.437 102.38C127.475 97.3756 124.392 92.023 122.078 86.0273L121.725 87.282C122.798 94.088 123.03 100.771 122.512 107.64C122.329 110.069 122.788 111.434 120.647 112.878C120.897 114.013 121.503 113.657 121.497 114.168C121.412 121.225 117.911 128.211 114.742 133.931C113.895 130.844 113.111 126.008 112.16 123.292C111.01 124.17 111.453 124.16 110.798 125.449C110.515 128.169 113.355 137.098 114.03 140.474C103.053 136.637 98.8109 132.803 92.5632 123.211L91.5188 123.607C91.516 125.096 93.6478 131.552 94.1941 133.512C90.4773 130.616 87.0355 125.757 85.5986 121.239C85.4563 120.572 85.0981 119.718 84.8512 119.062C79.7518 111.678 80.8108 96.4266 81.4542 87.7706C81.1638 87.3549 81.0888 86.9723 80.9447 86.4884C77.607 97.2493 78.5376 111.008 72.5997 120.911C72.2965 121.416 69.47 123.366 68.7324 123.897L69.5419 125.154C70.1915 124.832 70.9631 124.317 71.6093 124.439C71.058 126.581 67.3486 135.158 66.2544 137.093C63.6213 131.594 62.81 121.58 62.2996 115.407C61.0524 117.064 62.4661 122.229 61.8517 123.592L61.4875 123.336C61.6513 127.933 63.4075 141.303 65.162 145.442C64.4603 145.847 63.3811 146.345 63.0231 147.007C63.8547 147.548 65.3747 148.407 65.8195 149.206C67.4933 152.215 68.4932 155.3 70.125 158.385C72.0195 161.968 74.8449 164.783 76.9654 167.972C68.0786 165.112 65.2185 161.806 59.1824 154.985C61.7889 161.912 64.1556 162.773 68.61 168.212C69.8353 169.708 71.8221 176.651 73.0706 179.024C74.2737 181.312 76.8726 184.571 77.8192 186.547C78.9647 187.8 79.7516 188.756 80.7837 190.105C79.6093 189.527 77.7049 188.677 76.7347 187.893C76.6954 187.883 76.6562 187.872 76.617 187.862C69.4019 184.459 64.0752 178.14 60.5718 171.478L59.5746 172.089C59.4887 172.643 59.464 172.719 59.5344 173.269L59.3971 173.46Z"/><path fill="#0E3556" d="M110.798 125.449C110.321 122.424 110.239 118 110.785 114.998C111.193 117.921 111.566 120.398 112.16 123.292C111.01 124.17 111.453 124.16 110.798 125.449Z"/><path fill="#788294" d="M57.8682 166.483C58.7999 168.131 59.7012 169.797 60.5718 171.478L59.5746 172.089C59.4887 172.643 59.464 172.719 59.5344 173.269L59.3971 173.46C58.3983 172.084 58.0705 168.272 57.8682 166.483Z"/><path fill="#54688D" d="M137.979 48.8027C140.065 49.4949 141.799 50.0248 143.925 50.5743C143.633 51.2577 143.554 51.5004 143.062 52.092C141.131 51.1517 139.654 50.1211 137.979 48.8027Z"/><path fill="#2F3B44" d="M61.4875 123.336C61.4406 120.501 61.2777 116.303 61.748 113.608L61.9934 113.485C62.319 114.123 62.2801 114.697 62.2996 115.407C61.0524 117.064 62.4661 122.229 61.8517 123.592L61.4875 123.336Z"/><path fill="#2F3B44" d="M152.643 94.7333C154.094 97.0308 154.704 98.7966 155.721 101.293C154.839 101.849 155.11 101.594 154.719 102.713C154.376 100.322 153.347 97.106 152.643 94.7333Z"/><path fill="#3A526C" d="M69.5419 125.154C68.7347 125.72 67.5385 126.649 66.6079 126.792L66.3112 126.523C66.6462 125.367 67.7984 124.597 68.7324 123.897L69.5419 125.154Z"/><path fill="#677480" d="M84.8512 119.062C85.641 118.835 86.3742 118.517 87.1361 118.707C86.9473 119.79 85.7987 119.841 85.5986 121.239C85.4563 120.572 85.0981 119.718 84.8512 119.062Z"/><path fill="#EAE9E8" d="M77.8192 186.547C78.9647 187.8 79.7516 188.756 80.7837 190.105C79.6093 189.527 77.7049 188.677 76.7347 187.893C77.4087 188.103 77.7043 188.229 78.4293 188.208C78.1976 187.632 78.0179 187.131 77.8192 186.547Z"/><path fill="#3A526C" d="M91.5188 123.607C91.2988 122.749 91.0492 122.415 91.297 121.698C91.9099 121.948 92.191 122.607 92.5632 123.211L91.5188 123.607Z"/><path fill="#677480" d="M171.559 159.97L171.77 159.191L172.112 159.147C172.479 160.129 172.288 160.782 172.128 161.831C172.028 160.938 172.033 160.752 171.559 159.97Z"/><path fill="#677480" d="M121.725 87.282C121.53 86.5672 121.447 85.9051 121.337 85.1755L121.515 85.0068L122.078 86.0273L121.725 87.282Z"/><path fill="#2F3B44" d="M80.9447 86.4884L81.3347 85.8717C81.6347 86.4579 81.4841 87.0224 81.4542 87.7706C81.1638 87.3549 81.0888 86.9723 80.9447 86.4884Z"/><path fill="#2E577D" d="M131.107 62.4337C128.249 58.5372 122.519 54.9768 117.721 54.0475C116.265 53.7654 112.613 54.0957 112.126 53.7646C112.32 51.4342 117.193 51.7534 118.861 52.1507C134.585 55.8945 145.375 73.7402 150.916 87.7623C147.009 83.3697 146.688 80.3198 140.452 77.9454C116.64 68.8783 89.6234 70.3489 69.37 86.8791C65.2208 90.2698 64.1716 96.5061 63.1756 101.547C62.9257 101.195 62.7045 100.636 62.5237 100.229C63.3506 89.8849 68.4447 73.4662 75.5707 65.7092C78.3982 61.6343 84.2226 56.1171 89.2488 55.5283C90.3641 55.3977 91.853 54.9563 92.8084 55.5857C92.5338 56.9244 89.1875 57.0113 87.9442 57.6447C83.9561 59.6764 80.9445 63.1323 78.0744 66.4562C77.6876 67.1819 77.4558 67.3131 77.5198 68.0204C79.0185 67.8939 84.5856 64.506 86.786 63.6893C102.874 57.719 114.988 58.6058 131.107 62.4337Z"/><path fill="#54688D" d="M75.5707 65.7092C78.3982 61.6343 84.2226 56.1171 89.2488 55.5283C90.3641 55.3977 91.853 54.9563 92.8084 55.5857C92.5338 56.9244 89.1875 57.0113 87.9442 57.6447C83.9561 59.6764 80.9445 63.1323 78.0744 66.4562L78.1288 65.6863C81.8909 60.1958 83.8294 60.3438 88.3394 56.787L87.9818 56.4525C82.0357 57.2007 78.3652 64.8279 75.5707 65.7092Z"/><path fill="#3A526C" d="M62.5237 100.229C62.7045 100.636 62.9257 101.195 63.1756 101.547C63.0775 102.263 63.1765 102.338 62.7736 102.878C62.3617 102.023 62.4858 101.185 62.5237 100.229Z"/><path fill="#FEFEFE" d="M124.407 113.484C127.717 112.66 133.018 111.704 136.416 111.743C142.078 116.343 145.701 119.72 152.55 123.13C152.865 123.519 153.13 123.954 153.588 124.107C153.171 124.68 153.095 124.818 152.5 125.193C151.735 124.638 151.423 124.651 150.491 124.525C147.959 125.892 144.159 125.116 141.183 125.303C131.869 125.89 125.837 130.458 122.958 139.157C125.58 137.612 127.54 135.48 129.998 133.723C129.145 140.621 130.169 148.02 136.106 152.456C138.765 152.439 147.082 152.367 148.672 150.321C152.426 145.49 151.115 137.072 149.693 131.697C154.015 134.458 154.422 134.44 154.452 139.588L155.22 140.647C155.765 139.366 155.44 139.723 156.485 138.927L157.015 138.372L157.406 138.427C158.306 139.864 157.056 145.23 156.683 146.867C154.878 154.787 151.35 159.539 146.27 165.538C151.574 164.176 153.285 164.199 158.352 161.679C157.843 166.716 157.205 168.205 152.934 171.658C143.768 179.07 131.649 185.498 119.977 187.714C117.589 188.168 113.292 187.904 110.782 187.619C100.21 186.417 86.152 184.214 78.7379 175.942C77.476 174.534 76.2371 171.912 75.5384 170.199C78.8791 170.199 80.6204 170.215 83.9204 169.669C78.5603 166.415 74.2802 161.652 71.617 155.975C71.1294 154.929 70.4346 153.537 70.6606 152.358L71.0342 152.35L71.8265 153.287L72.9999 154.415C73.351 154.11 73.826 153.804 74.2154 153.533C73.5132 152.019 72.8287 150.568 72.2166 149.014C73.9992 145.834 74.9525 144.439 77.9928 142.303C77.7893 148.35 78.1236 152.071 81.7523 157.282C82.6871 158.625 84.609 160.97 85.3883 162.304C87.8261 162.317 89.343 162.076 91.7064 161.411L91.8905 161.37C99.4358 159.6 98.3086 153.625 96.689 147.734C95.9128 145.138 96.3142 144.032 94.5112 141.826C91.9532 138.697 84.9416 135.877 81.0141 136.311C75.7968 136.889 75.0247 138.071 69.2764 137.708C70.1107 134.867 73.616 125.162 75.0869 122.905C76.5299 122.262 80.0699 121.389 81.681 120.959C84.1601 125.078 85.4961 127.63 88.591 131.432L90.648 133.863C91.3102 134.378 91.3885 134.574 91.7794 135.279C94.3574 136.661 96.1614 138.844 99.2914 140.095C98.1548 137.857 97.057 135.418 95.9401 133.141C105.955 139.995 105.27 140.843 117.976 143.731C117.534 142.48 115.683 138.777 116.007 137.673C117.182 133.674 120.315 129.352 121.72 125.056C123.135 120.728 123.831 117.869 124.407 113.484Z"/><path fill="#54688D" d="M88.591 131.432L90.648 133.863C91.3102 134.378 91.3885 134.574 91.7794 135.279C90.0938 135.195 82.8786 133.823 81.4503 132.955L81.6125 132.697L81.7327 133.053L81.9212 132.638C84.4474 132.399 85.3419 132.555 87.8099 132.916L88.591 131.432Z"/><path fill="#EAE9E8" d="M88.591 131.432L90.648 133.863C89.6152 133.89 88.7066 133.375 87.8099 132.916L88.591 131.432Z"/><path fill="#3D657D" d="M152.55 123.13C152.865 123.519 153.13 123.954 153.588 124.107C153.171 124.68 153.095 124.818 152.5 125.193C151.735 124.638 151.423 124.651 150.491 124.525C151.432 123.999 151.733 123.824 152.55 123.13Z"/><path fill="#EAE9E8" d="M71.617 155.975C71.1294 154.929 70.4346 153.537 70.6606 152.358L71.0342 152.35L71.8265 153.287L71.4549 153.876C71.97 155.241 72.0556 154.836 71.617 155.975Z"/><path fill="#54688D" d="M154.452 139.588L155.22 140.647C155.765 139.366 155.44 139.723 156.485 138.927C156.149 139.969 155.864 141.172 155.154 141.978L154.76 141.964C154.326 141.161 154.428 140.504 154.452 139.588Z"/><path fill="#3A526C" d="M74.2154 153.533C74.6661 154.351 75.4631 155.699 75.7668 156.532C75.0623 156.013 73.5705 154.977 72.9999 154.415C73.351 154.11 73.826 153.804 74.2154 153.533Z"/><path fill="#3A526C" d="M133.808 122.769L134.012 122.819L134.153 123.166C133.409 123.948 130.263 125.372 129.056 126.157C127.33 127.279 125.889 128.311 124.228 129.531C123.872 129.385 124.041 129.49 123.812 129.015C124.754 125.613 130.871 123.733 133.808 122.769Z"/><path fill="#3A526C" d="M113.209 172.042C114.351 171.943 116.548 171.925 117.059 173.118L116.73 173.528C115.585 173.553 113.287 173.925 112.844 172.767L113.209 172.042Z"/><path fill="#FEFEFE" d="M194.113 52.0975C205.59 52.6127 213.007 64.4525 217.361 73.7448C220.261 79.936 222.21 85.7815 226.641 91.162C233.218 99.1484 243.326 103.586 248.469 112.752C251.559 118.355 250.729 123.34 249.004 129.136C247.267 122.242 245.127 117.246 239.288 113.027C239.717 114.35 240.072 115.644 240.464 116.978C243.831 128.432 239.729 143.127 227.158 146.651C225.081 147.233 223.272 147.357 221.087 147.52C223.134 144.534 224.315 144.136 226.241 140.385C228.193 136.34 228.006 131.069 227.236 126.846C225.364 115.203 217.835 109.493 208.363 103.418C197.854 96.6768 186.757 85.4809 183.565 72.9526C182.549 68.9672 185.238 66.3667 189.041 65.7202C194.105 64.8593 199.308 68.6928 202.852 71.9019C204.717 73.5643 206.774 76.0777 208.832 77.4911L209.037 77.6295C205.083 70.8371 200.057 63.5276 191.453 62.2557C187.801 61.7158 184.816 63.684 182.107 65.8842C182.192 58.0707 185.925 52.815 194.113 52.0975Z"/><path fill="#FEFEFE" d="M9.3512 158.964C6.35849 154.093 5.79526 151.259 6.51687 145.587C8.29173 131.637 20.1181 123.992 25.6322 112.274C28.9753 104.625 28.7429 95.9254 30.8095 87.8925C34.0997 75.1033 40.0632 65.2211 54.8699 68.7556C51.2226 80.123 43.4769 75.8476 38.6355 87.457C38.8345 89.3725 36.7043 91.4036 37.3475 92.9195C38.2104 91.2013 40.7717 87.1648 42.2452 85.9555C44.0125 83.5861 46.0493 82.0409 48.5904 80.5522C47.7272 82.5859 46.3982 85.9759 45.4565 87.8564C42.3687 97.5557 40.0833 106.606 39.5292 116.874C39.3057 121.016 39.3559 126.256 38.9997 130.296C38.1973 133.742 34.5044 137.76 32.4081 140.411C26.0875 148.406 24.6988 160.322 32.1118 168.09C33.0196 169.041 37.1115 170.932 37.3492 171.485C36.0872 172.95 34.8894 173.323 32.9915 173.465C20.9471 174.371 14.694 163.376 13.639 152.937C12.9242 152.082 13.8074 149.873 13.3775 148.659C12.6943 148.039 12.6266 148.214 11.5304 148.057C9.53498 151.495 9.46023 155.154 9.3512 158.964Z"/><path fill="#EAE9E8" d="M42.2452 85.9555C44.0125 83.5861 46.0493 82.0409 48.5904 80.5522C47.7272 82.5859 46.3982 85.9759 45.4565 87.8564C45.301 86.7196 46.0564 84.7058 46.3097 83.3036C45.6998 83.2358 43.2762 85.4028 42.4228 85.8616L42.2452 85.9555Z"/><path fill="#677480" d="M11.5304 148.057C12.3203 146.46 12.7385 145.81 13.7705 144.352C13.7741 146.049 13.8678 151.5 13.639 152.937C12.9242 152.082 13.8074 149.873 13.3775 148.659C12.6943 148.039 12.6266 148.214 11.5304 148.057Z"/><path fill="#788294" d="M38.6355 87.457C38.8345 89.3725 36.7043 91.4036 37.3475 92.9195C37.211 93.645 37.1056 92.975 37.0771 93.7045L36.7619 93.727C36.3713 92.0917 37.8354 88.8836 38.6355 87.457Z"/><path fill="#FEFEFE" d="M168.215 199.169C177.679 200.829 186.335 200.34 192.612 209.229C198.192 217.132 198.067 227.188 200.356 235.627C195.008 238.648 189.728 241.125 184.282 243.932C181.222 245.51 177.778 247.707 174.827 249.536C174.458 245.88 173.653 241.075 173.413 237.717C172.745 237.782 172.07 237.676 171.398 237.606C167.842 237.098 167.88 234.382 165.531 232.176C164.312 231.78 163.252 231.435 161.998 231.132C161.982 224.111 165.66 205.866 168.215 199.169Z"/><path fill="#54688D" d="M172.443 233.474C173.047 234.972 173.283 236.1 173.413 237.717C172.745 237.782 172.07 237.676 171.398 237.606C171.523 236.748 171.424 235.333 171.392 234.426L172.443 233.474Z"/><path fill="#677480" d="M171.392 234.426C171.147 233.406 170.945 233.354 171.284 232.584C171.98 232.732 171.901 232.855 172.443 233.474L171.392 234.426Z"/><path fill="#FEFEFE" d="M160.421 50.8199C167.996 54.9134 174.607 60.7381 178.811 68.296C175.422 66.5642 174.413 65.6326 170.596 64.4328L169.164 65.0284L169.058 65.3277L170.109 66.4143C177.761 70.2327 179.25 70.8254 182.035 79.3222C184.474 86.7635 180.689 90.4406 179.168 97.0713C183.139 92.7238 183.022 90.8273 185.436 86.0486C185.891 86.7306 186.715 87.9647 186.939 88.7036C188.574 94.0909 187.591 103.103 186.52 108.481C186.317 109.5 186.085 110.513 185.824 111.519L186.513 112.343C189.274 107.525 189.664 102.305 190.039 96.8565L190.484 92.6585C191.301 94.2686 191.743 95.1004 192.269 96.8247C194.067 102.511 195.244 111.644 195.445 117.542C191.62 118.478 186.349 120.092 182.852 121.745C180.643 97.6075 171.345 75.4672 154.72 57.8332C156.582 55.0148 157.907 53.0609 160.421 50.8199Z"/><path fill="#54688D" d="M170.109 66.4143C168.991 66.018 166.649 65.3736 166.128 64.3778L166.481 64.0847C167.768 63.8633 169.283 64.2162 170.596 64.4328L169.164 65.0284L169.058 65.3277L170.109 66.4143Z"/><path fill="#EAE9E8" d="M190.484 92.6585C191.301 94.2686 191.743 95.1004 192.269 96.8247C191.372 96.199 191.497 95.8204 190.901 95.3394L190.039 96.8565L190.484 92.6585Z"/><path fill="#54688D" d="M186.513 112.343C186.174 112.945 186.115 113.165 185.515 113.521C185.306 112.67 185.533 112.495 185.824 111.519L186.513 112.343Z"/><path fill="#FEFEFE" d="M183.61 124.708C193.375 121.351 198.151 119.728 208.477 118.677C206.995 125.878 195.848 138.858 190.166 143.64C187.734 145.692 185.058 147.434 182.198 148.828C182.341 146.088 182.638 143.205 182.852 140.476C182.952 139.199 183.16 135.166 184.658 134.982C185.294 134.904 185.875 135.234 186.347 135.64C187.344 137.342 186.458 140.085 186.112 142.239C188.599 139.681 189.543 139.005 190.408 135.559C189.797 134.022 188.88 132.841 187.809 131.622C190.587 129.69 195.075 126.823 198.34 125.899C199.129 126.505 200.068 126.598 201.047 126.784C202.06 125.684 202.072 125.023 201.966 123.56C199.651 120.655 186.526 129.047 183.778 130.628C183.527 128.266 183.528 127.099 183.61 124.708Z"/><path fill="#BAC1C4" d="M198.34 125.899C199.129 126.505 200.068 126.598 201.047 126.784C199.952 127.49 199.895 128.77 198.7 129.569C197.544 128.915 198.877 127.281 198.34 125.899Z"/><path fill="#B6DAEB" d="M138.543 141.179C137.927 139.294 137.604 136.578 139.715 135.533C141.725 135.249 142.144 136.94 142.447 138.45C143.381 138.631 143.637 138.624 144.258 139.349C146.588 139.783 149.194 140.324 148.813 143.881C148.702 144.919 147.73 146.836 146.9 147.486L145.702 149.9C143.194 150.173 138.533 150.919 136.382 149.782C134.617 148.425 133.691 146.454 133.118 144.376C133.323 143.446 133.462 142.259 134.353 141.691C135.773 140.785 137.278 141.881 137.996 143.212C138.865 142.529 138.758 142.131 138.543 141.179Z"/><path fill="#FEFEFE" d="M138.543 141.179C137.927 139.294 137.604 136.578 139.715 135.533C141.725 135.249 142.144 136.94 142.447 138.45C143.381 138.631 143.637 138.624 144.258 139.349C146.588 139.783 149.194 140.324 148.813 143.881C148.702 144.919 147.73 146.836 146.9 147.486C146.344 146.238 144.102 144.649 142.766 144.355L141.09 144.891C139.913 144.87 138.266 144.487 137.996 143.212C138.865 142.529 138.758 142.131 138.543 141.179Z"/><path fill="#9287B9" d="M144.258 139.349C146.588 139.783 149.194 140.324 148.813 143.881C148.702 144.919 147.73 146.836 146.9 147.486C146.344 146.238 144.102 144.649 142.766 144.355C143.672 144.169 143.445 144.331 144.041 143.825C144.599 142.615 144.103 141.137 144.24 139.552L144.258 139.349Z"/><path fill="#54688D" d="M142.447 138.45C143.381 138.631 143.637 138.624 144.258 139.349L144.24 139.552C144.103 141.137 144.599 142.615 144.041 143.825C143.445 144.331 143.672 144.169 142.766 144.355L141.09 144.891C139.913 144.87 138.266 144.487 137.996 143.212C138.865 142.529 138.758 142.131 138.543 141.179C139.376 141.866 139.7 142.201 140.718 142.532C142.769 142.303 142.419 140.112 142.447 138.45Z"/><path fill="#9287B9" d="M133.118 144.376C133.323 143.446 133.462 142.259 134.353 141.691C135.773 140.785 137.278 141.881 137.996 143.212C138.266 144.487 139.913 144.87 141.09 144.891C139.737 145.194 139.345 145.354 138.086 145.947C137.423 147.31 136.934 148.365 136.382 149.782C134.617 148.425 133.691 146.454 133.118 144.376Z"/><path fill="#B6DAEB" d="M87.9287 151.513C87.4307 149.834 86.6659 146.695 88.2491 145.423C90.8082 145.146 91.6051 148.889 92.1229 150.776C95.7609 150.178 94.5501 149.38 96.535 147.851L96.689 147.734C98.3086 153.625 99.4358 159.6 91.8905 161.37L91.7064 161.411C92.3554 160.469 95.6443 159.412 96.6389 158.069C97.8749 156.4 97.9478 151.936 96.5405 150.441L96.5446 150.491C95.1699 149.905 94.2063 150.723 93.4116 151.841C92.8476 154.209 96.737 156.478 95.4636 158.659L94.8195 158.405L94.4304 159.098L93.4812 158.912C91.3526 159.716 88.8852 160.877 86.7272 159.599C81.3494 155.874 81.2572 154.187 85.2261 149.572L86.9237 152.986C87.5284 152.489 87.6117 152.204 87.9287 151.513Z"/><path fill="#54688D" d="M87.9287 151.513C87.4307 149.834 86.6659 146.695 88.2491 145.423C90.8082 145.146 91.6051 148.889 92.1229 150.776C95.7609 150.178 94.5501 149.38 96.535 147.851L96.689 147.734C98.3086 153.625 99.4358 159.6 91.8905 161.37L91.7064 161.411C92.3554 160.469 95.6443 159.412 96.6389 158.069C97.8749 156.4 97.9478 151.936 96.5405 150.441L96.5446 150.491C95.1699 149.905 94.2063 150.723 93.4116 151.841C92.8476 154.209 96.737 156.478 95.4636 158.659L94.8195 158.405L94.4304 159.098L93.4812 158.912C95.7608 156.802 94.7235 156.027 93.421 153.555C92.0919 153.986 90.7607 154.41 89.4273 154.827C88.3252 154.049 87.444 154.273 86.9237 152.986C87.5284 152.489 87.6117 152.204 87.9287 151.513Z"/><path fill="#EAE9E8" d="M87.9287 151.513C87.4307 149.834 86.6659 146.695 88.2491 145.423C90.8082 145.146 91.6051 148.889 92.1229 150.776C91.6301 152.233 89.8251 152.09 88.4968 151.956C88.332 151.841 88.0338 151.66 87.9287 151.513Z"/><path fill="#9287B9" d="M85.2261 149.572L86.9237 152.986C87.444 154.273 88.3252 154.049 89.4273 154.827L87.0897 156.135C86.9509 157.285 86.7955 158.443 86.7272 159.599C81.3494 155.874 81.2572 154.187 85.2261 149.572Z"/><path fill="#B6DAEB" d="M164.166 198.188L165.488 198.361C165.99 199.236 163.81 206.584 163.425 208.076C161.362 216.058 160.433 224.138 159.226 232.267C158.708 232.956 158.844 232.748 157.737 232.921C157.027 232.823 156.752 232.828 156.147 232.403C155.252 228.923 160.914 200.912 164.166 198.188Z"/><path fill="#FEFEFE" d="M126.087 99.6451C127.35 100.198 130.163 105.097 131.287 106.334C131.741 106.835 133.44 108.715 133.522 109.254L133.003 109.411C130.588 109.477 127.936 109.872 125.519 110.176C125.859 107.757 125.939 102.372 126.087 99.6451Z"/><path fill="#FEFEFE" d="M35.9437 146.641C37.876 146.57 40.185 146.229 42.1367 145.988C43.177 148.051 44.0697 151.481 44.7286 153.781C45.0171 154.597 45.2579 154.814 45.0697 155.528C44.3898 155.323 44.2591 155.156 43.7253 154.706C40.1466 152.139 38.2592 150.308 35.9437 146.641Z"/><path fill="#EAE9E8" d="M44.7286 153.781C45.0171 154.597 45.2579 154.814 45.0697 155.528C44.3898 155.323 44.2591 155.156 43.7253 154.706L44.7286 153.781Z"/><path fill="#FEFEFE" d="M202.426 224.8C206.971 226.145 208.827 227.202 205.776 231.624C204.796 232.645 204.265 233.013 203.137 233.828C203.139 230.824 202.351 227.31 202.426 224.8Z"/><path fill="#EAE9E8" d="M39.5341 137.135C40.493 138.114 40.9319 141.178 41.17 142.549C39.8249 142.725 37.9495 143.151 36.5743 143.425L35.7429 143.448L35.5701 143.121C35.9807 141.414 38.3564 138.633 39.5341 137.135Z"/><path fill="#EAE9E8" d="M78.8385 111.857C79.6135 112.33 80.7867 116.979 81.143 118.164L78.0548 119.297C77.3418 119.5 76.9432 119.567 76.2291 119.674L76.0729 119.364C77.0744 117.435 78.1053 114.042 78.8385 111.857Z"/><path fill="#FEFEFE" d="M153.588 124.107C155.849 124.188 157.597 125.547 158.294 127.693C158.195 128.492 158.34 128.197 157.707 128.784C155.766 129.285 153.415 128.078 152.4 126.425C152.304 125.832 152.298 125.757 152.5 125.193C153.095 124.818 153.171 124.68 153.588 124.107Z"/><path fill="#EAE9E8" d="M69.8312 225.201L70.2324 225.505C70.2287 226.15 69.0438 228.885 68.728 229.399C67.6598 231.136 68.5107 233.437 67.8683 234.874L67.3945 234.886C65.2816 230.136 65.417 228.037 69.8312 225.201Z"/><path fill="#FEFEFE" d="M132.185 133.334C133.795 133.203 136.151 132.796 136.143 135.076C135.684 136.061 135.553 136.156 134.689 136.83C133.665 137.279 133.448 137.438 132.51 137.177C131.443 136.179 131.192 134.394 132.185 133.334Z"/><path fill="#EAE9E8" d="M80.3824 142.617L83.9839 142.384C84.0398 143.908 84.2778 145.037 83.4059 146.218L82.9508 146.256C80.0147 146.486 78.0507 144.678 80.3824 142.617Z"/><path fill="#B6DAEB" d="M140.741 235.765C141.998 235.703 143.117 235.612 144.062 236.44L143.949 236.959C143.291 237.789 141.942 238.222 140.928 238.651C140.586 238.836 140.24 239.015 139.893 239.19C139.037 239.612 138.837 239.68 138.055 239.419L137.957 238.916C138.551 237.375 139.435 236.778 140.741 235.765Z"/><path fill="#B6DAEB" d="M166.7 238.954C170.355 239.634 172.273 240.719 171.582 244.596C170.215 243.991 166.893 240.53 166.7 238.954Z"/><path fill="#B6DAEB" d="M150.434 231.81L150.69 231.836C151.734 231.947 152.462 231.946 153.101 232.734L152.899 233.209C151.888 234.1 150.341 234.578 149.056 235.071C148.016 235.355 147.974 235.564 147.186 235.23L147.173 234.693C147.924 233.408 149.067 232.398 150.434 231.81Z"/><path fill="#B6DAEB" d="M161.054 234.072C164.35 233.67 166.092 235.051 165.999 238.469C164.659 238.443 161.217 235.588 161.054 234.072Z"/><path fill="#EAE9E8" d="M68.5914 138.389C69.6526 139.03 70.1854 139.918 70.8734 140.919C70.4276 141.569 69.6572 142.466 69.1406 143.103C68.3823 143.615 68.598 143.63 67.7997 143.634L67.529 143.188C67.3893 141.623 68.0008 139.821 68.5914 138.389Z"/><path fill="#9287B9" d="M94.0723 152.741L94.4767 152.613L94.3958 152.964L94.1743 152.974L94.0723 152.741Z"/><path fill="#2E577D" fill-opacity="0.20392157" d="M245.848 131.44C245.17 134.637 244.917 134.661 243.753 137.46L243.025 137.309C243.855 135.365 244.716 133.208 245.848 131.44Z"/></svg>